<svg xmlns="http://www.w3.org/2000/svg" xml:space="preserve" width="500" height="500" viewBox="0 0 1500 1500" data-version="1" data-id="lg_EvmsGULfmpnkMT4Knq" x="0" y="0"><rect width="1500" height="1500" id="background" stroke="transparent" fill="#111111"></rect><g id="outer-wrapper" data-padding="20" transform="matrix(1.5414931642385865,0,0,1.5414931642385865,-406.11987317893977,-406.11987317893977)"><g id="inner-wrapper" transform="matrix(0.9606299212598425,0,0,0.9606299212598425,10,10.944881889763792)">
<path fill="none" stroke="#fff" stroke-width="7.4" d="M770.327868852459 539.8637622950821A253.837 253.837 0 1 0 770.327868852459 1047.537762295082A253.837 253.837 0 1 0 770.327868852459 539.8637622950821Z " paint-order="stroke"></path><rect width="333.307" height="266.68" x="203.67486885245899" y="237.81076229508213" fill="none" rx="0" ry="0" transform="translate(400.5 422.65)"></rect><path fill="#73ff85" d="M700.057868852459 870.040762295082Q680.937868852459 870.040762295082 664.777868852459 863.550762295082Q648.607868852459 857.060762295082 636.4578688524591 845.260762295082Q624.297868852459 833.4607622950821 617.577868852459 817.770762295082Q610.8478688524591 802.070762295082 610.8478688524591 783.670762295082Q610.8478688524591 765.020762295082 617.807868852459 749.330762295082Q624.7678688524591 733.630762295082 637.277868852459 721.9507622950821T666.427868852459 703.780762295082T701.947868852459 697.290762295082Q724.367868852459 697.290762295082 742.537868852459 705.2007622950821Q760.7078688524591 713.100762295082 772.037868852459 727.030762295082L743.7178688524591 755.350762295082Q735.2178688524591 745.2007622950821 725.067868852459 740.1207622950819Q714.9278688524591 735.050762295082 701.4678688524591 735.050762295082Q687.787868852459 735.050762295082 677.047868852459 741.070762295082T659.937868852459 757.940762295082Q653.567868852459 768.800762295082 653.567868852459 783.430762295082T659.577868852459 809.1507622950819Q665.597868852459 820.250762295082 676.097868852459 826.3807622950819Q686.607868852459 832.520762295082 700.287868852459 832.520762295082Q713.977868852459 832.520762295082 723.537868852459 827.330762295082Q733.097868852459 822.1307622950819 738.1678688524589 812.220762295082Q743.247868852459 802.310762295082 743.247868852459 788.6207622950819L771.797868852459 807.030762295082L695.567868852459 805.1407622950819V770.690762295082H785.727868852459V777.060762295082Q785.727868852459 807.030762295082 774.867868852459 827.800762295082T744.777868852459 859.300762295082Q725.547868852459 870.040762295082 700.057868852459 870.040762295082M848.4978688524591 838.170762295082H797.527868852459L878.237868852459 729.3807622950819H929.207868852459ZM927.327868852459 867.4407622950821H797.527868852459V838.1707622950821L822.777868852459 832.0407622950821H927.327868852459ZM903.727868852459 735.510762295082H801.7678688524591V700.1107622950822H929.207868852459V729.3807622950821Z " paint-order="stroke"></path><path fill="#fff" d="M835.631868852459 494.2007622950821A3.3 3.3 0 0 0 832.357868852459 491.1507622950821H706.957868852459A3.3 3.3 0 0 0 703.683868852459 494.2007622950821L703.6578688524589 578.9307622950821A3.3 3.3 0 0 0 706.957868852459 582.2307622950821H832.357868852459A3.3 3.3 0 0 0 835.6578688524589 578.9307622950821ZM830.377868852459 566.3907622950821H708.937868852459V496.4307622950821H830.377868852459ZM790.7778688524589 598.0707622950821C785.497868852459 596.750762295082 784.1778688524589 592.7907622950821 784.1778688524589 587.510762295082V586.1907622950821H755.137868852459V587.510762295082C755.137868852459 592.7907622950821 753.8178688524589 596.750762295082 748.5378688524588 598.0707622950821C747.2578688524588 598.3877622950821 747.2178688524589 600.7107622950821 748.5378688524588 600.7107622950821H790.7778688524588C792.0978688524589 600.7107622950821 792.0578688524588 598.3877622950821 790.7778688524588 598.0707622950821 "></path></g><rect width="508" height="556" x="496" y="472" id="space-saver" fill="transparent" stroke="transparent"></rect></g></svg>